<?xml version="1.0" encoding="UTF-8" standalone="no"?>
<svg
   xmlns:dc="http://purl.org/dc/elements/1.1/"
   xmlns:cc="http://creativecommons.org/ns#"
   xmlns:rdf="http://www.w3.org/1999/02/22-rdf-syntax-ns#"
   xmlns:svg="http://www.w3.org/2000/svg"
   xmlns="http://www.w3.org/2000/svg"
   id="svg3256"
   version="1.1"
   viewBox="0 0 30.188957 24.897291"
   height="24.897291mm"
   width="30.188957mm">
  <defs
     id="defs3250" />
  <metadata
     id="metadata3253">
    <rdf:RDF>
      <cc:Work
         rdf:about="">
        <dc:format>image/svg+xml</dc:format>
        <dc:type
           rdf:resource="http://purl.org/dc/dcmitype/StillImage" />
        <dc:title></dc:title>
      </cc:Work>
    </rdf:RDF>
  </metadata>
  <g
     transform="translate(-42.357902,-70.616828)"
     id="layer1">
    <g
       id="g3164"
       transform="matrix(0.26458333,0,0,0.26458333,-5.9814724,-489.37379)">
      <path
         id="path3154"
         d="M 291.8,2116.5 H 187.7 c -2.8,0 -5,2.3 -5,5 v 84.1 c 0,2.8 2.3,5 5,5 h 104.1 c 2.8,0 5,-2.3 5,-5 v -84.1 c 0,-2.7 -2.3,-5 -5,-5 z m 0,89.1 H 187.7 c 0,0 0,0 0,0 v -84.1 h 104.1 z"
         class="st11" />
      <path
         id="path3156"
         d="m 197.1,2189.2 h 85.2 c 1.4,0 2.5,-1.1 2.5,-2.5 V 2131 c 0,-1.4 -1.1,-2.5 -2.5,-2.5 h -85.2 c -1.4,0 -2.5,1.1 -2.5,2.5 v 55.7 c 0,1.4 1.1,2.5 2.5,2.5 z m 82.7,-5 h -14.9 v 0 l -10.6,-10.6 7.9,-7.9 17.1,17.1 c 0.2,0.2 0.4,0.3 0.6,0.4 v 1 z m 0,-50.7 v 42.7 l -15.9,-15.9 c -1,-1 -2.6,-1 -3.6,0 l -9.7,9.7 -22.2,-22.2 c -1,-1 -2.6,-1 -3.6,0 l -25.2,25.2 v -39.5 z m -80.2,46.6 27,-27 31.1,31.1 h -58.1 z"
         class="st11" />
      <path
         id="path3158"
         d="m 250.5,2157.4 c 5.3,0 9.5,-4.3 9.5,-9.5 0,-5.2 -4.3,-9.5 -9.5,-9.5 -5.3,0 -9.5,4.3 -9.5,9.5 0,5.2 4.2,9.5 9.5,9.5 z m 0,-14.1 c 2.5,0 4.5,2 4.5,4.5 0,2.5 -2,4.5 -4.5,4.5 -2.5,0 -4.5,-2 -4.5,-4.5 0,-2.5 2,-4.5 4.5,-4.5 z"
         class="st11" />
      <path
         id="path3160"
         d="M 197.1,2199.9 H 219 c 1.4,0 2.5,-1.1 2.5,-2.5 0,-1.4 -1.1,-2.5 -2.5,-2.5 h -21.9 c -1.4,0 -2.5,1.1 -2.5,2.5 0,1.4 1.1,2.5 2.5,2.5 z"
         class="st11" />
      <path
         id="path3162"
         d="m 236.3,2194.9 h -5.8 c -1.4,0 -2.5,1.1 -2.5,2.5 0,1.4 1.1,2.5 2.5,2.5 h 5.8 c 1.4,0 2.5,-1.1 2.5,-2.5 0,-1.4 -1.1,-2.5 -2.5,-2.5 z"
         class="st11" />
    </g>
  </g>
</svg>
