<?xml version="1.0" encoding="UTF-8" standalone="no"?>
<!-- Created with Inkscape (http://www.inkscape.org/) -->

<svg
   xmlns:dc="http://purl.org/dc/elements/1.1/"
   xmlns:cc="http://creativecommons.org/ns#"
   xmlns:rdf="http://www.w3.org/1999/02/22-rdf-syntax-ns#"
   xmlns:svg="http://www.w3.org/2000/svg"
   xmlns="http://www.w3.org/2000/svg"
   xmlns:sodipodi="http://sodipodi.sourceforge.net/DTD/sodipodi-0.dtd"
   xmlns:inkscape="http://www.inkscape.org/namespaces/inkscape"
   width="28.72052mm"
   height="27.463749mm"
   viewBox="0 0 28.72052 27.463749"
   version="1.1"
   id="svg3203"
   sodipodi:docname="icon-registration-1.svg"
   inkscape:version="0.92.4 5da689c313, 2019-01-14">
  <defs
     id="defs3197" />
  <sodipodi:namedview
     id="base"
     pagecolor="#ffffff"
     bordercolor="#666666"
     borderopacity="1.0"
     inkscape:pageopacity="0.0"
     inkscape:pageshadow="2"
     inkscape:zoom="0.35"
     inkscape:cx="-808.58214"
     inkscape:cy="-139.52859"
     inkscape:document-units="mm"
     inkscape:current-layer="layer1"
     showgrid="false"
     inkscape:window-width="1920"
     inkscape:window-height="1019"
     inkscape:window-x="3840"
     inkscape:window-y="0"
     inkscape:window-maximized="1" />
  <metadata
     id="metadata3200">
    <rdf:RDF>
      <cc:Work
         rdf:about="">
        <dc:format>image/svg+xml</dc:format>
        <dc:type
           rdf:resource="http://purl.org/dc/dcmitype/StillImage" />
      </cc:Work>
    </rdf:RDF>
  </metadata>
  <g
     inkscape:label="Layer 1"
     inkscape:groupmode="layer"
     id="layer1"
     transform="translate(-118.68736,-84.452645)">
    <g
       transform="matrix(0.26458333,0,0,0.26458333,72.385276,-434.95089)"
       id="g3150">
      <path
         inkscape:connector-curvature="0"
         class="st11"
         d="m 274.4,2006.3 c -2.4,0 -4.4,2 -4.4,4.4 v 4.4 c 0,11.5 -4.5,22.4 -12.7,30.5 -8.2,8.1 -19,12.6 -30.5,12.6 0,0 0,0 0,0 -23.8,0 -43.2,-19.4 -43.1,-43.2 0,-11.5 4.5,-22.4 12.7,-30.5 8.2,-8.1 19,-12.6 30.5,-12.6 0,0 0,0 0,0 6.1,0 12,1.3 17.5,3.7 2.2,1 4.8,0 5.8,-2.2 1,-2.2 0,-4.8 -2.2,-5.8 -6.7,-3 -13.8,-4.5 -21.1,-4.5 0,0 0,0 0,0 -13.9,0 -26.9,5.4 -36.7,15.2 -9.8,9.8 -15.2,22.8 -15.2,36.7 0,13.9 5.4,26.9 15.2,36.7 9.8,9.8 22.8,15.2 36.7,15.2 0,0 0,0 0,0 13.9,0 26.9,-5.4 36.7,-15.2 9.8,-9.8 15.2,-22.8 15.2,-36.7 v -4.4 c 0,-2.4 -2,-4.3 -4.4,-4.3 z"
         id="path3146" />
      <path
         inkscape:connector-curvature="0"
         class="st11"
         d="m 282.2,1969.2 c -1.7,-1.7 -4.5,-1.7 -6.2,0 l -49.2,49.2 -11.2,-11.2 c -1.7,-1.7 -4.5,-1.7 -6.2,0 -1.7,1.7 -1.7,4.5 0,6.2 l 14.3,14.3 c 0.9,0.9 2,1.3 3.1,1.3 1.1,0 2.2,-0.4 3.1,-1.3 l 52.3,-52.3 c 1.8,-1.7 1.8,-4.5 0,-6.2 z"
         id="path3148" />
    </g>
  </g>
</svg>
