<?xml version="1.0" encoding="UTF-8" standalone="no"?>
<svg
   xmlns:dc="http://purl.org/dc/elements/1.1/"
   xmlns:cc="http://creativecommons.org/ns#"
   xmlns:rdf="http://www.w3.org/1999/02/22-rdf-syntax-ns#"
   xmlns:svg="http://www.w3.org/2000/svg"
   xmlns="http://www.w3.org/2000/svg"
   id="svg3308"
   version="1.1"
   viewBox="0 0 28.442705 25.55875"
   height="25.55875mm"
   width="28.442705mm">
  <defs
     id="defs3302" />
  <metadata
     id="metadata3305">
    <rdf:RDF>
      <cc:Work
         rdf:about="">
        <dc:format>image/svg+xml</dc:format>
        <dc:type
           rdf:resource="http://purl.org/dc/dcmitype/StillImage" />
        <dc:title></dc:title>
      </cc:Work>
    </rdf:RDF>
  </metadata>
  <g
     transform="translate(-7.701261,-102.0361)"
     id="layer1">
    <path
       style="stroke-width:0.26458332"
       id="path3152"
       d="m 36.091057,110.55568 c -0.05292,-0.8202 -1.005417,-1.4552 -2.936875,-1.93145 0.05292,-0.1323 0.105833,-0.29105 0.105833,-0.4498 v -3.30729 0 c -0.15875,-2.75166 -11.482917,-2.83104 -12.779375,-2.83104 -1.296458,0 -12.620625,0.0794 -12.779375,2.83104 v 0 0.0529 0 0 3.25437 c 0,0.89959 1.1641667,1.61396 2.883958,2.11667 -0.02646,0.0794 -0.02646,0.15875 -0.05292,0.23813 v 0 0.0529 0 0 3.25438 c -1.8520836,0.47625 -2.8045836,1.11125 -2.831042,1.905 v 0 0.0529 0 0 3.25437 c 0,0.635 0.555625,1.16417 1.4816667,1.61396 -0.026458,0.10583 -0.052917,0.18521 -0.052917,0.29104 v 0 0.0529 0 0 3.25437 c 0,1.5875 3.5454173,2.56646 7.4877083,3.01625 0.02646,0 0.05292,0.0265 0.07937,0.0265 0,0 0.02646,0 0.02646,0 0.767292,0.0794 1.534584,0.15875 2.301876,0.21167 0.02646,0 0.02646,0 0.05292,0 0,0 0.02646,0 0.02646,0 0.978958,0.0529 1.931458,0.0794 2.831041,0.0794 0.899584,0 1.852084,-0.0265 2.831042,-0.0794 0,0 0.02646,0 0.02646,0 0.02646,0 0.02646,0 0.05292,0 0.767292,-0.0529 1.534583,-0.10583 2.301875,-0.21167 0,0 0.02646,0 0.02646,0 0.02646,0 0.05292,0 0.07937,-0.0265 3.942285,-0.44979 7.487702,-1.42875 7.487702,-3.01625 v -3.30729 0 c -0.02646,-0.58208 -0.529167,-1.05833 -1.508125,-1.48167 0.05292,-0.13229 0.07937,-0.29104 0.07937,-0.42333 v -3.09563 c 1.693338,-0.52916 2.831046,-1.21708 2.831046,-2.11666 z m -3.836459,8.67834 -0.15875,0.13229 c -0.238125,0.21167 -0.661458,0.44979 -1.217083,0.66146 v -2.24896 c 0.555625,-0.18521 1.031875,-0.42333 1.42875,-0.66146 v 1.95792 c 0,0.0529 -0.02646,0.10583 -0.05292,0.15875 z m -10.609791,2.19604 c -0.07938,0 -0.132292,0 -0.211667,0 -0.15875,0 -0.343958,0 -0.502708,0 v -2.35479 c 0.132291,0 0.264583,0 0.396875,0 0.02646,0 0.05292,0 0.07938,0 0.47625,0 0.9525,-0.0265 1.42875,-0.0529 v 2.35479 c -0.105834,0 -0.211667,0 -0.3175,0.0265 -0.291042,0.0265 -0.582084,0.0265 -0.873125,0.0265 z m -2.06375,0.0265 c -0.211667,0 -0.423334,0 -0.635,-0.0265 -0.02646,0 -0.05292,0 -0.07938,0 -0.264584,0 -0.502709,-0.0265 -0.767292,-0.0265 v -2.35479 c 0.47625,0.0265 0.9525,0.0265 1.42875,0.0529 0.02646,0 0.05292,0 0.07938,0 0.132292,0 0.264583,0 0.396875,0 v 2.38125 c -0.07937,0 -0.185208,0 -0.264583,0 -0.07937,-0.0265 -0.105834,-0.0265 -0.15875,-0.0265 z m -8.546042,-1.08479 c -0.02646,0 -0.02646,0 -0.05292,-0.0265 v -2.30188 c 0.449792,0.13229 0.926042,0.23813 1.42875,0.3175 v 2.30188 c -0.423333,-0.0794 -0.846666,-0.18521 -1.190625,-0.29104 -0.07938,0.0265 -0.132291,0.0265 -0.185208,0 z m 9.974792,3.91583 c 0.132291,0 0.264583,0 0.396875,0 v 2.38125 c -0.661459,0 -1.296459,-0.0265 -1.905,-0.0529 v -2.35479 c 0.47625,0.0265 0.9525,0.0265 1.42875,0.0529 0.02646,-0.0265 0.05292,-0.0265 0.07937,-0.0265 z m 1.799166,0 c 0.47625,0 0.9525,-0.0265 1.42875,-0.0529 v 2.35479 c -0.608541,0.0265 -1.243541,0.0529 -1.905,0.0529 v -2.38125 c 0.132292,0 0.264584,0 0.396875,0 0.02646,0.0265 0.05292,0.0265 0.07938,0.0265 z m 3.81,-0.21167 v 2.35479 c -0.449791,0.0529 -0.926041,0.0794 -1.42875,0.1323 v -2.3548 c 0.47625,-0.0529 0.9525,-0.0794 1.42875,-0.13229 z m 0.9525,-0.10583 c 0.47625,-0.0529 0.9525,-0.13229 1.42875,-0.21167 v 2.32834 c -0.449791,0.0794 -0.926041,0.15875 -1.42875,0.21166 z m 2.354792,-0.37042 c 0.502708,-0.10583 0.978958,-0.21166 1.42875,-0.3175 v 2.30188 c -0.423333,0.13229 -0.899583,0.23812 -1.42875,0.34396 z m -16.113125,0 v 2.30188 c -0.529167,-0.10584 -1.005417,-0.23813 -1.42875,-0.34396 v -2.30188 c 0.449792,0.1323 0.926042,0.26459 1.42875,0.34396 z m 0.9525,0.18521 c 0.449792,0.0794 0.926042,0.13229 1.42875,0.21167 v 2.35479 c -0.502708,-0.0529 -0.978958,-0.13229 -1.42875,-0.21167 z m 2.38125,0.29104 c 0.47625,0.0529 0.9525,0.0794 1.42875,0.10584 v 2.35479 c -0.502708,-0.0265 -0.978958,-0.0794 -1.42875,-0.13229 z m -1.190625,-2.83104 c -0.05292,0 -0.105833,0 -0.132292,-0.0265 -0.02646,0 -0.07938,0 -0.105833,0 v -2.35479 c 0.47625,0.0529 0.9525,0.0794 1.42875,0.10583 v 2.3548 c -0.396875,0 -0.79375,-0.0529 -1.190625,-0.0794 z m -1.190625,-2.48708 v 2.35479 c -0.502708,-0.0529 -0.978958,-0.13229 -1.42875,-0.21167 v -2.32833 c 0.47625,0.0529 0.9525,0.13229 1.42875,0.18521 z m 9.313333,2.56646 c -0.105833,0 -0.211666,0.0265 -0.3175,0.0265 v -2.35479 c 0.47625,-0.0265 0.9525,-0.0794 1.42875,-0.10584 v 2.35479 c -0.291041,0.0265 -0.582083,0.0529 -0.899583,0.0794 -0.05292,-0.0265 -0.132292,0 -0.211667,0 z m 2.06375,-0.21167 v -2.35479 c 0.47625,-0.0529 0.9525,-0.13229 1.42875,-0.21167 v 2.32833 c -0.449791,0.10584 -0.926041,0.15875 -1.42875,0.23813 z m 2.38125,-2.72521 c 0.502709,-0.10583 0.978959,-0.21167 1.42875,-0.3175 v 2.30188 c -0.423333,0.13229 -0.899583,0.23812 -1.42875,0.34395 z m -6.482291,-2.16958 c -0.343959,0 -0.714375,-0.0265 -1.058334,-0.0265 -0.02646,0 -0.02646,0 -0.05292,0 v -2.35479 c 0.47625,0.0265 0.9525,0.0265 1.42875,0.0529 0.02646,0 0.05292,0 0.07938,0 0.132291,0 0.264583,0 0.396875,0 v 2.35479 c -0.238125,0 -0.47625,0 -0.687917,0 -0.05292,-0.0265 -0.07937,-0.0265 -0.105833,-0.0265 z m -11.059584,-6.77334 v -2.30187 c 0.449792,0.13229 0.926042,0.23812 1.42875,0.3175 v 2.30187 c -0.05292,0 -0.105833,-0.0265 -0.185208,-0.0265 -0.264583,-0.0529 -0.502708,-0.10584 -0.740833,-0.18521 -0.15875,0 -0.343959,-0.0529 -0.502709,-0.10584 z m 8.598959,-1.27 c 0.132291,0 0.264583,0 0.396875,0 v 2.3548 c -0.635,0 -1.27,-0.0265 -1.905,-0.0529 v -2.35479 c 0.47625,0.0265 0.9525,0.0265 1.42875,0.0529 0.02646,0 0.05292,0 0.07938,0 z m 1.825625,0 c 0.47625,0 0.9525,-0.0264 1.42875,-0.0529 v 2.35479 c -0.07937,0 -0.15875,0 -0.238125,0.0265 0,0 -0.02646,0 -0.02646,0 -0.3175,0.0265 -0.635,0.0265 -0.978958,0.0265 -0.05292,0 -0.105833,0 -0.15875,0 -0.15875,0 -0.343958,0 -0.502708,0 v -2.3548 c 0.132291,0 0.264583,0 0.396875,0 0.02646,0 0.05292,0 0.07938,0 z m 10.795,0.23813 v 0 l -0.185209,0.13229 c -0.238125,0.18521 -0.635,0.39688 -1.137708,0.58208 v -2.24895 c 0.555625,-0.18521 1.031875,-0.42334 1.42875,-0.66146 v 1.95791 c 0,0.0794 -0.05292,0.15875 -0.105833,0.23813 z m -6.058959,1.79917 v -2.32834 c 0.47625,-0.0529 0.9525,-0.13229 1.42875,-0.21166 v 2.32833 c -0.449791,0.0794 -0.926041,0.13229 -1.42875,0.21167 z m 2.38125,-0.39688 v -2.30187 c 0.502709,-0.10584 0.978959,-0.21167 1.42875,-0.3175 v 2.27541 c -0.449791,0.10584 -0.926041,0.21167 -1.42875,0.34396 z m -3.33375,-1.85208 v 2.35479 c -0.449791,0.0529 -0.926041,0.0794 -1.42875,0.13229 v -2.35479 c 0.502709,-0.0529 0.978959,-0.0794 1.42875,-0.13229 z m -9.472083,2.35479 v -2.35479 c 0.47625,0.0529 0.9525,0.0794 1.42875,0.10583 v 2.35479 c -0.502708,-0.0265 -0.978958,-0.0529 -1.42875,-0.10583 z m -0.9525,-2.46063 v 2.32834 c -0.105833,0 -0.185208,-0.0265 -0.291042,-0.0265 -0.05292,0 -0.105833,-0.0265 -0.185208,-0.0265 -0.264583,-0.0265 -0.529167,-0.0794 -0.79375,-0.13229 -0.05292,0 -0.105833,-0.0265 -0.15875,-0.0265 v -2.32833 c 0.47625,0.10583 0.9525,0.15875 1.42875,0.21166 z m 5.106458,8.255 c -0.05292,0 -0.132291,0 -0.185208,-0.0265 -0.291042,-0.0265 -0.608542,-0.0529 -0.899583,-0.0794 -0.05292,0 -0.132292,0 -0.185209,-0.0265 0,0 -0.02646,0 -0.02646,0 v -2.35479 c 0.47625,0.0529 0.9525,0.0794 1.42875,0.10583 v 2.3548 c -0.05292,0.0529 -0.105833,0.0265 -0.132292,0.0265 z m -3.148541,-0.34395 c -0.185209,-0.0265 -0.370417,-0.0529 -0.555625,-0.10584 v -2.32833 c 0.449791,0.0794 0.926041,0.13229 1.42875,0.21167 v 2.35479 c -0.291042,-0.0265 -0.582084,-0.0794 -0.846667,-0.13229 0,0 0,0 -0.02646,0 z M 15.24189,113.1751 v 2.30187 c -0.529167,-0.10583 -1.005417,-0.23812 -1.42875,-0.34395 v -2.27542 c 0.449792,0.10583 0.926042,0.23812 1.42875,0.3175 z m -2.354792,-0.60854 v 2.24896 c -0.740833,-0.29105 -1.217083,-0.58209 -1.375833,-0.84667 l -0.02646,-0.0529 c 0,-0.0265 0,-0.0265 0,-0.0529 v -1.95791 c 0.343958,0.23812 0.820208,0.44979 1.402291,0.66146 z m 11.350625,1.29646 c 0.47625,0 0.9525,-0.0265 1.42875,-0.0529 v 2.35479 c -0.635,0.0265 -1.243541,0.0529 -1.905,0.0529 v -2.35479 c 0.132292,0 0.264584,0 0.396875,0 0.02646,0 0.05292,0 0.07937,0 z m 6.138334,1.82562 c -0.211667,0.0265 -0.423334,0.0794 -0.635,0.10583 -0.132292,0.0265 -0.238125,0.0265 -0.370417,0.0529 -0.132292,0.0265 -0.238125,0.0265 -0.370417,0.0529 v -2.32833 c 0.47625,-0.0529 0.9525,-0.13229 1.42875,-0.21167 v 2.32833 c -0.02646,0 -0.05292,0 -0.05292,0 z m -3.227917,0.39688 c -0.185208,0.0265 -0.370417,0.0265 -0.529167,0.0265 v -2.35479 c 0.47625,-0.0265 0.9525,-0.0794 1.42875,-0.10584 v 2.35479 c -0.264583,0.0265 -0.555625,0.0529 -0.820208,0.0794 -0.05292,0 -0.05292,0 -0.07938,0 z m 5.423958,-0.87313 c -0.238125,0.0529 -0.47625,0.13229 -0.740833,0.18521 -0.105833,0.0265 -0.238125,0.0529 -0.370417,0.0794 -0.02646,0 -0.07937,0.0265 -0.105833,0.0265 v -2.30188 c 0.502708,-0.10583 0.978958,-0.21166 1.42875,-0.3175 v 2.30188 c -0.07937,-0.0265 -0.132292,0 -0.211667,0.0265 z m 2.566459,-4.63021 c -0.05292,0.3175 -0.767292,0.74084 -2.06375,1.16417 v 0 c -1.666875,0.52917 -4.312709,1.00542 -7.62,1.13771 -0.15875,0 -0.343959,0.0265 -0.502709,0.0265 -0.132291,0 -0.291041,0 -0.423333,0 -0.396875,0 -0.79375,0.0265 -1.190625,0.0265 -0.396875,0 -0.820208,0 -1.190625,-0.0265 -0.132292,0 -0.291042,0 -0.423333,0 -0.185209,0 -0.343959,0 -0.502709,-0.0265 -3.33375,-0.15875 -5.953125,-0.60854 -7.62,-1.13771 v 0 c -1.296458,-0.39688 -2.010833,-0.82021 -2.06375,-1.13771 0,0 0,-0.0265 0,-0.0265 0.02646,0 0.07938,0.0265 0.105834,0.0265 0.185208,0.0529 0.370416,0.0794 0.555625,0.13229 0.9525,0.21167 1.984375,0.37042 3.095625,0.50271 0,0 0,0 0,0 0,0 0,0 0,0 0.767291,0.0794 1.534583,0.15875 2.354791,0.21167 0,0 0,0 0.02646,0 0,0 0,0 0,0 0.582084,0.0265 1.164167,0.0529 1.772709,0.0794 0.370417,0 0.714375,0.0265 1.058333,0.0265 0.238125,0 0.502709,0 0.767292,0 3.439583,-0.0529 6.641042,-0.44979 8.863542,-1.08479 0.105833,-0.0265 0.211666,-0.0529 0.291041,-0.0794 0.05292,-0.0264 0.132292,-0.0264 0.185209,-0.0529 0.15875,-0.0529 0.343958,-0.10584 0.502708,-0.15875 0.02646,0 0.05292,-0.0265 0.07938,-0.0265 0.132292,-0.0529 0.264583,-0.10583 0.396875,-0.15875 0.02645,-0.0265 0.07937,-0.0265 0.105828,-0.0529 0.132292,-0.0529 0.264584,-0.13229 0.370417,-0.18521 0.05292,-0.0265 0.105833,-0.0529 0.15875,-0.0794 0.05292,-0.0265 0.105833,-0.0529 0.15875,-0.10583 0.02646,-0.0265 0.05292,-0.0265 0.105833,-0.0529 2.037292,0.37042 2.592917,0.87312 2.645834,1.05833 z M 20.454182,102.9886 c 7.805208,0 11.773958,1.21708 11.826875,1.93146 -0.05292,0.3175 -0.79375,0.74083 -2.06375,1.13771 v 0 c -1.666875,0.52916 -4.312709,1.00541 -7.62,1.13771 -0.15875,0 -0.343959,0.0264 -0.502709,0.0264 -0.132291,0 -0.291041,0 -0.423333,0 -0.396875,0 -0.79375,0.0265 -1.190625,0.0265 -0.396875,0 -0.820208,0 -1.190625,-0.0265 -0.132292,0 -0.291042,0 -0.423333,0 -0.185209,0 -0.343959,0 -0.502709,-0.0264 -3.33375,-0.15875 -5.953125,-0.60855 -7.62,-1.13771 v 0 c -1.296458,-0.39688 -2.010833,-0.82021 -2.0637496,-1.13771 0,-0.71438 3.9687496,-1.93146 11.7739586,-1.93146 z m -11.8533336,5.21229 v -1.95791 c 0.3704166,0.23812 0.8466666,0.44979 1.4287496,0.66145 v 2.27542 c -0.9260413,-0.37042 -1.4287496,-0.71437 -1.4287496,-0.97896 z m 2.3018746,6.53521 c 0,0.0265 0.02646,0.0265 0,0 0.661459,0.68792 2.010834,1.19063 3.677709,1.5875 0.02646,0 0.07938,0.0265 0.105833,0.0265 0.132292,0.0265 0.238125,0.0529 0.370417,0.0794 1.534583,0.3175 3.360208,0.55563 5.371041,0.68792 0,0 0,0 0,0 0,0 0,0 0,0 0.635,0.0265 1.296459,0.0529 1.957917,0.0794 0.291042,0 0.582083,0 0.873125,0 0.3175,0 0.661458,0 1.005417,0 0.608541,0 1.243541,-0.0265 1.825625,-0.0794 0,0 0,0 0,0 0,0 0,0 0,0 2.010833,-0.10583 3.889375,-0.34396 5.476875,-0.68792 -0.343959,0.18521 -0.820209,0.37042 -1.402292,0.55563 v 0 c -1.772708,0.55562 -4.60375,1.03187 -8.175625,1.16416 -0.105833,0 -0.211667,0 -0.3175,0 -0.105833,0 -0.238125,0 -0.343958,0 -0.291042,0 -0.608542,0 -0.899584,0 -0.423333,0 -0.820208,0 -1.190625,-0.0265 -0.132291,0 -0.291041,0 -0.423333,0 -0.185208,0 -0.343958,0 -0.502708,-0.0265 -3.33375,-0.15875 -5.953125,-0.60854 -7.62,-1.13771 v 0 c -1.2964587,-0.39687 -2.037292,-0.82021 -2.0637503,-1.16417 0.052917,-0.15875 0.5291666,-0.60854 2.2754163,-1.05833 z m -2.3018746,4.33917 v -1.95792 c 0.3704166,0.23813 0.8466666,0.44979 1.4287496,0.66146 v 2.24896 l -0.264583,-0.10584 v 0 c -0.7672917,-0.29104 -1.1641666,-0.60854 -1.1641666,-0.84666 z m 1.4287496,5.21229 v -1.95792 c 0.370417,0.23813 0.846667,0.44979 1.42875,0.66146 v 2.27542 c -0.926041,-0.34396 -1.42875,-0.68792 -1.42875,-0.97896 z m 22.277917,0.97896 v -2.27542 c 0.555625,-0.18521 1.031875,-0.42333 1.42875,-0.66146 v 1.95792 c 0,0.26458 -0.502708,0.635 -1.42875,0.97896 z m 1.402292,-4.23334 c -0.05292,0.3175 -0.767292,0.74084 -2.06375,1.13771 v 0 c -1.666875,0.52917 -4.312709,1.00542 -7.62,1.13771 -0.15875,0 -0.343959,0.0265 -0.502709,0.0265 -0.132291,0 -0.291041,0 -0.423333,0 -0.396875,0 -0.79375,0.0265 -1.190625,0.0265 -0.396875,0 -0.820208,0 -1.190625,-0.0265 -0.132292,0 -0.291042,0 -0.423333,0 -0.185209,0 -0.343959,0 -0.529167,-0.0265 -3.33375,-0.15875 -5.953125,-0.60854 -7.62,-1.13771 v 0 c -1.243542,-0.39687 -1.984375,-0.79375 -2.06375,-1.11125 0.132292,0.0529 0.291042,0.10584 0.449792,0.13229 0.02646,0 0.02646,0 0.05292,0.0265 0.132291,0.0265 0.264583,0.0794 0.396875,0.10584 0.05292,0.0265 0.105833,0.0265 0.15875,0.0529 0.07938,0.0265 0.15875,0.0529 0.238125,0.0529 1.719791,0.44979 3.915833,0.76729 6.297083,0.89958 0,0 0,0 0,0 0,0 0,0 0,0 0.740833,0.0529 1.481666,0.0794 2.248958,0.0794 0.211667,0 0.396875,0 0.608542,0 0.264583,0 0.529166,0 0.79375,0 0.687916,0 1.375833,-0.0265 2.037291,-0.0794 0,0 0,0 0,0 0,0 0,0 0,0 0.820209,-0.0529 1.5875,-0.10583 2.354792,-0.21167 0,0 0,0 0,0 0,0 0.02646,0 0.02646,0 0.846667,-0.10583 1.640417,-0.21166 2.38125,-0.34395 0.15875,-0.0265 0.291042,-0.0529 0.449792,-0.0794 0.02646,0 0.07937,-0.0265 0.105833,-0.0265 1.402292,-0.29104 2.619375,-0.66146 3.439584,-1.11125 0.05292,-0.0265 0.07937,-0.0529 0.132291,-0.0794 0.05292,-0.0265 0.105834,-0.0529 0.15875,-0.10584 0.05292,-0.0265 0.105834,-0.0529 0.132292,-0.0794 0.873125,0.3175 1.137708,0.60855 1.164167,0.74084 z m 0.02646,-6.19125 v -2.27541 c 0.555625,-0.18521 1.031875,-0.42334 1.42875,-0.66146 v 1.95792 c -0.02646,0.26458 -0.529167,0.635 -1.42875,0.97895 z"
       class="st11" />
  </g>
</svg>
